<svg width="26" height="24" viewBox="0 0 26 24" fill="none" xmlns="http://www.w3.org/2000/svg">
<path fill-rule="evenodd" clip-rule="evenodd" d="M0.5 5.35715C0.5 2.39848 2.89848 0 5.85715 0H12.4048C15.0347 0 17.1667 2.13198 17.1667 4.76191V5.95239C17.1667 6.60987 16.6337 7.14287 15.9762 7.14287C15.3187 7.14287 14.7857 6.60987 14.7857 5.95239V4.76191C14.7857 3.44695 13.7198 2.38096 12.4048 2.38096H5.85715C4.21344 2.38096 2.88096 3.71345 2.88096 5.35715V18.4524C2.88096 20.0961 4.21344 21.4286 5.85715 21.4286H12.4048C13.7198 21.4286 14.7857 20.3626 14.7857 19.0476V17.8572C14.7857 17.1997 15.3187 16.6667 15.9762 16.6667C16.6337 16.6667 17.1667 17.1997 17.1667 17.8572V19.0476C17.1667 21.6775 15.0347 23.8096 12.4048 23.8096H5.85715C2.89848 23.8096 0.5 21.4111 0.5 18.4524V5.35715ZM19.8963 7.49155C20.3612 7.02664 21.115 7.02664 21.5799 7.49155L25.1513 11.063C25.6162 11.5279 25.6162 12.2817 25.1513 12.7466L21.5799 16.318C21.115 16.7829 20.3612 16.7829 19.8963 16.318C19.4315 15.8531 19.4315 15.0993 19.8963 14.6344L21.4355 13.0953H11.2143C10.5568 13.0953 10.0238 12.5623 10.0238 11.9048C10.0238 11.2473 10.5568 10.7143 11.2143 10.7143H21.4355L19.8963 9.17514C19.4315 8.71023 19.4315 7.95646 19.8963 7.49155Z" fill="#0F1729"/>
</svg>
