<svg width="57" height="40" viewBox="0 0 57 40" fill="none" xmlns="http://www.w3.org/2000/svg">
<path d="M53.9813 15.2075L39.282 2.48756C38.6009 1.90265 37.8241 1.43826 36.9488 1.09549C36.0748 0.752727 35.1587 0.553702 34.2004 0.496205C33.8196 0.446449 33.4363 0.419913 33.0504 0.416595H7.98213C7.72019 0.416595 7.45953 0.427652 7.19887 0.449766C6.93948 0.47188 6.68138 0.505051 6.42455 0.549279C6.16772 0.592401 5.91472 0.647686 5.66428 0.714027C5.41512 0.779263 5.16851 0.855556 4.92702 0.9418C4.68552 1.02804 4.45042 1.12535 4.21914 1.23149C3.98915 1.33874 3.76426 1.45484 3.54704 1.57979C3.32983 1.70583 3.12027 1.84073 2.91839 1.98336C2.7165 2.1271 2.52229 2.27858 2.33829 2.43891C2.15302 2.59924 1.97796 2.7662 1.81185 2.9409C1.64575 3.1156 1.49114 3.29804 1.34547 3.486C1.19981 3.67397 1.06565 3.86747 0.942982 4.06649C0.81904 4.26662 0.707875 4.47118 0.608211 4.68015C0.507268 4.88913 0.420381 5.10142 0.343716 5.31814C0.268328 5.53485 0.204441 5.75378 0.15333 5.97492C0.10222 6.19717 0.0638874 6.42052 0.0383323 6.64608C0.0127772 6.87053 0 7.0961 0 7.32276V32.9351C0 33.1617 0.0127772 33.3873 0.0383323 33.6118C0.0638874 33.8373 0.10222 34.0607 0.15333 34.2829C0.204441 34.5041 0.268328 34.7241 0.343716 34.9397C0.420381 35.1564 0.507268 35.3687 0.608211 35.5777C0.707875 35.7867 0.81904 35.9912 0.942982 36.1913C1.06565 36.3904 1.19981 36.5839 1.34547 36.7718C1.49114 36.9609 1.64575 37.1422 1.81185 37.3169C1.97796 37.4916 2.15302 37.6586 2.33829 37.8189C2.52229 37.9792 2.7165 38.1307 2.91839 38.2745C3.12027 38.4171 3.32983 38.552 3.54704 38.678C3.76426 38.803 3.98915 38.9202 4.21914 39.0263C4.45042 39.1325 4.68552 39.2298 4.92702 39.316C5.16851 39.4023 5.41512 39.4786 5.66428 39.5449C5.91472 39.6101 6.16772 39.6654 6.42455 39.7097C6.68138 39.7528 6.93948 39.786 7.19887 39.8081C7.45953 39.8313 7.72019 39.8423 7.98213 39.8423H33.0504C33.8771 39.8423 34.6846 39.7329 35.4717 39.514C36.1924 39.3702 36.8773 39.1435 37.5251 38.8328C38.1729 38.5233 38.7581 38.1418 39.282 37.6896L53.9813 24.9752C54.1665 24.8148 54.3416 24.6479 54.5077 24.4732C54.6738 24.2985 54.8284 24.1172 54.9741 23.9281C55.1197 23.7401 55.2539 23.5466 55.3766 23.3476C55.5005 23.1475 55.6117 22.944 55.7113 22.735C55.8123 22.5261 55.8992 22.3127 55.9758 22.0959C56.0512 21.8803 56.1151 21.6603 56.1662 21.4392C56.2173 21.2169 56.2557 20.9936 56.2812 20.768C56.3068 20.5436 56.3196 20.318 56.3196 20.0913C56.3196 19.8658 56.3068 19.6402 56.2812 19.4146C56.2557 19.1891 56.2173 18.9657 56.1662 18.7446C56.1151 18.5223 56.0512 18.3034 55.9758 18.0867C55.8992 17.87 55.8123 17.6577 55.7113 17.4487C55.6117 17.2397 55.5005 17.0352 55.3766 16.8362C55.2539 16.636 55.1197 16.4425 54.9741 16.2546C54.8284 16.0666 54.6738 15.8853 54.5077 15.7106C54.3416 15.5348 54.1665 15.3678 53.9813 15.2075Z" fill="#1C3D32"/>
</svg>
