<svg width="25" height="24" viewBox="0 0 25 24" fill="none" xmlns="http://www.w3.org/2000/svg">
<path fill-rule="evenodd" clip-rule="evenodd" d="M21.875 10.6891L12.5 21.875L3.125 10.643C2.00391 9.08514 1.5625 8.0328 1.5625 6.59218C1.5625 3.90546 3.48047 1.4875 6.25 1.46484C8.52812 1.44609 11.1109 3.77264 12.5 5.52654C13.8523 3.83436 16.4719 1.46484 18.75 1.46484C21.4461 1.46484 23.4375 3.90546 23.4375 6.59218C23.4375 8.0328 23.0883 9.16329 21.875 10.6891ZM18.75 0C16.1461 0 14.1758 1.52813 12.5 3.125C10.9039 1.43047 8.85391 0 6.25 0C2.58281 0 0 3.15312 0 6.59218C0 8.43671 0.75547 9.76483 1.58281 11.0133L11.2961 22.6586C12.3859 23.8125 12.5922 23.8125 13.682 22.6586L23.4172 11.0133C24.3906 9.76483 25 8.43671 25 6.59218C25 3.15312 22.4172 0 18.75 0Z" fill="black"/>
</svg>
