<svg width="15" height="15" viewBox="0 0 19 19" fill="none" xmlns="http://www.w3.org/2000/svg">
<path fill-rule="evenodd" clip-rule="evenodd" d="M0.5 5.46899C0.5 4.14291 1.02678 2.87114 1.96447 1.93346C2.90215 0.995778 4.17392 0.468994 5.5 0.468994H13.5C14.8261 0.468994 16.0979 0.995778 17.0355 1.93346C17.9732 2.87114 18.5 4.14291 18.5 5.46899V13.469C18.5 14.7951 17.9732 16.0668 17.0355 17.0045C16.0979 17.9422 14.8261 18.469 13.5 18.469H5.5C4.17392 18.469 2.90215 17.9422 1.96447 17.0045C1.02678 16.0668 0.5 14.7951 0.5 13.469V5.46899ZM5.5 2.46899C4.70435 2.46899 3.94129 2.78506 3.37868 3.34767C2.81607 3.91028 2.5 4.67334 2.5 5.46899V13.469C2.5 14.2646 2.81607 15.0277 3.37868 15.5903C3.94129 16.1529 4.70435 16.469 5.5 16.469H13.5C14.2956 16.469 15.0587 16.1529 15.6213 15.5903C16.1839 15.0277 16.5 14.2646 16.5 13.469V5.46899C16.5 4.67334 16.1839 3.91028 15.6213 3.34767C15.0587 2.78506 14.2956 2.46899 13.5 2.46899H5.5ZM13.097 4.68299C13.097 4.41778 13.2024 4.16342 13.3899 3.97589C13.5774 3.78835 13.8318 3.68299 14.097 3.68299H14.107C14.3722 3.68299 14.6266 3.78835 14.8141 3.97589C15.0016 4.16342 15.107 4.41778 15.107 4.68299C15.107 4.94821 15.0016 5.20256 14.8141 5.3901C14.6266 5.57764 14.3722 5.68299 14.107 5.68299H14.097C13.8318 5.68299 13.5774 5.57764 13.3899 5.3901C13.2024 5.20256 13.097 4.94821 13.097 4.68299ZM9.5 6.46899C8.70435 6.46899 7.94129 6.78506 7.37868 7.34767C6.81607 7.91028 6.5 8.67334 6.5 9.46899C6.5 10.2646 6.81607 11.0277 7.37868 11.5903C7.94129 12.1529 8.70435 12.469 9.5 12.469C10.2956 12.469 11.0587 12.1529 11.6213 11.5903C12.1839 11.0277 12.5 10.2646 12.5 9.46899C12.5 8.67334 12.1839 7.91028 11.6213 7.34767C11.0587 6.78506 10.2956 6.46899 9.5 6.46899ZM4.5 9.46899C4.5 8.14291 5.02678 6.87114 5.96447 5.93346C6.90215 4.99578 8.17392 4.46899 9.5 4.46899C10.8261 4.46899 12.0979 4.99578 13.0355 5.93346C13.9732 6.87114 14.5 8.14291 14.5 9.46899C14.5 10.7951 13.9732 12.0668 13.0355 13.0045C12.0979 13.9422 10.8261 14.469 9.5 14.469C8.17392 14.469 6.90215 13.9422 5.96447 13.0045C5.02678 12.0668 4.5 10.7951 4.5 9.46899Z" fill="white"/>
</svg>
