<svg width="18" height="18" viewBox="0 0 21 21" fill="none" xmlns="http://www.w3.org/2000/svg">
<path d="M10.2588 6.382V14.868M6.01579 10.625H14.5018M19.2588 10.625C19.2588 11.8069 19.026 12.9772 18.5737 14.0692C18.1214 15.1611 17.4585 16.1532 16.6227 16.989C15.787 17.8247 14.7949 18.4876 13.7029 18.9399C12.611 19.3922 11.4407 19.625 10.2588 19.625C9.07689 19.625 7.90657 19.3922 6.81464 18.9399C5.72271 18.4876 4.73056 17.8247 3.89483 16.989C3.0591 16.1532 2.39617 15.1611 1.94387 14.0692C1.49158 12.9772 1.25879 11.8069 1.25879 10.625C1.25879 8.23805 2.207 5.94887 3.89483 4.26104C5.58266 2.57321 7.87184 1.625 10.2588 1.625C12.6457 1.625 14.9349 2.57321 16.6227 4.26104C18.3106 5.94887 19.2588 8.23805 19.2588 10.625Z" stroke="black" stroke-width="2" stroke-linecap="round" stroke-linejoin="round"/>
</svg>
