<svg width="19" height="17" viewBox="0 0 21 17" fill="none" xmlns="http://www.w3.org/2000/svg">
<path fill-rule="evenodd" clip-rule="evenodd" d="M20.5 2.36039C19.7512 2.68859 18.9573 2.90263 18.145 2.99539C18.9962 2.49336 19.6359 1.69904 19.945 0.760388C19.1377 1.23096 18.2571 1.56257 17.34 1.74139C16.9536 1.33803 16.4894 1.01725 15.9755 0.798445C15.4615 0.579638 14.9086 0.467356 14.35 0.468388C13.8156 0.46417 13.2856 0.565286 12.7903 0.765959C12.295 0.966632 11.8441 1.26293 11.4634 1.63792C11.0826 2.01291 10.7795 2.45925 10.5713 2.95143C10.3631 3.44362 10.2539 3.972 10.25 4.50639C10.25 4.81639 10.285 5.12439 10.355 5.42539C8.72956 5.34788 7.13813 4.9323 5.68233 4.20517C4.22653 3.47805 2.93834 2.45535 1.9 1.20239C1.37622 2.09146 1.21572 3.14836 1.45194 4.15285C1.68816 5.15734 2.30288 6.03193 3.168 6.59439C2.51779 6.57518 1.88112 6.40394 1.309 6.09439V6.14439C1.3148 7.08315 1.64597 7.99085 2.24609 8.71277C2.8462 9.4347 3.6781 9.92616 4.6 10.1034C3.99435 10.2652 3.36012 10.2891 2.744 10.1734C3.01331 10.9804 3.52652 11.6838 4.21275 12.1866C4.89898 12.6894 5.72439 12.9668 6.575 12.9804C4.84557 14.3087 2.66557 14.9087 0.5 14.6524C2.38216 15.8425 4.56415 16.4724 6.791 16.4684C8.31562 16.4911 9.82954 16.2104 11.2447 15.6426C12.6598 15.0749 13.948 14.2314 15.0342 13.1613C16.1204 12.0912 16.983 10.8158 17.5718 9.40926C18.1606 8.00274 18.4639 6.49318 18.464 4.96839C18.464 4.79139 18.464 4.61939 18.452 4.44539C19.2548 3.87959 19.9487 3.17321 20.5 2.36039Z" fill="white"/>
</svg>
