<svg width="20" height="20" viewBox="0 0 27 27" fill="none" xmlns="http://www.w3.org/2000/svg">
<path fill-rule="evenodd" clip-rule="evenodd" d="M3.18753 13.5C3.18753 7.63198 7.9445 2.875 13.8125 2.875C19.6805 2.875 24.4375 7.63198 24.4375 13.5C24.4375 19.368 19.6805 24.125 13.8125 24.125C11.7223 24.125 9.77659 23.5227 8.13498 22.4826C7.82946 22.2891 7.4551 22.2374 7.10855 22.3407L3.50961 23.4149L4.86466 20.2441C5.02483 19.8694 4.99224 19.4401 4.77734 19.0939C3.76963 17.47 3.18753 15.5549 3.18753 13.5ZM13.8125 0.375C6.56379 0.375 0.687527 6.25126 0.687527 13.5C0.687527 15.7976 1.27895 17.9604 2.31831 19.8409L0.163089 24.8838C-0.0274382 25.3296 0.0570143 25.8454 0.379777 26.2071C0.702539 26.569 1.2054 26.7115 1.66999 26.5728L7.29426 24.8944C9.21556 25.9956 11.4421 26.625 13.8125 26.625C21.0613 26.625 26.9375 20.7487 26.9375 13.5C26.9375 6.25126 21.0613 0.375 13.8125 0.375ZM16.6781 16.228L15.0354 17.3851C14.266 16.9469 13.4154 16.3351 12.5621 15.4819C11.6751 14.5949 11.0175 13.6791 10.5327 12.8391L11.5766 11.953C12.0246 11.5727 12.1473 10.9317 11.8713 10.4129L10.5411 7.91285C10.3619 7.57621 10.039 7.33975 9.66394 7.27068C9.28891 7.20161 8.90289 7.3075 8.61559 7.55824L8.2212 7.90244C7.27279 8.73017 6.71188 10.0904 7.17676 11.4676C7.65873 12.8954 8.68729 15.1425 10.7944 17.2496C13.0614 19.5166 15.3641 20.4094 16.7108 20.7561C17.7958 21.0354 18.8225 20.661 19.546 20.0715L20.2854 19.469C20.6016 19.2114 20.7723 18.8155 20.7425 18.4086C20.7126 18.0017 20.4861 17.635 20.1356 17.4261L18.0378 16.1761C17.614 15.9237 17.0815 15.944 16.6781 16.228Z" fill="white"/>
</svg>
